Crispy Standard Black-MinGrade-minXOPQ.ufo
<glyph name="exclam" format="2">
  <advance width="182"/>
  <unicode hex="0021"/>
  <outline>
    <contour>
      <point x="89" y="480" type="line" identifier="1m237t4hyw"/>
      <point x="92" y="480" type="line" identifier="S4rO5KuHiL"/>
      <point x="92" y="1600" type="line" identifier="zfocDyDTCM"/>
      <point x="89" y="1600" type="line" identifier="v7N4yg5XNk"/>
    </contour>
    <component base="period" xOffset="30"/>
  </outline>
</glyph>
<glyph name="three" format="2">
  <advance width="2122"/>
  <unicode hex="0033"/>
  <outline>
    <contour>
      <point x="228" y="0" type="line" identifier="O9abUc1nmN"/>
      <point x="1941" y="0" type="line" identifier="kMJYMTfXCq"/>
      <point x="1941" y="986" type="line" identifier="su2XmdS8e8"/>
      <point x="1727" y="986" type="line" identifier="JQaOzDQqlF"/>
      <point x="1776" y="1068" type="line"/>
      <point x="1776" y="1600" type="line" identifier="xg8x2Ki40p"/>
      <point x="308" y="1600" type="line" identifier="pE1XSRiy68"/>
      <point x="308" y="1030" type="line" identifier="5lNstGRcSF"/>
      <point x="310" y="1030" type="line" identifier="AcE5xKDZfE"/>
      <point x="310" y="1214" type="line" identifier="7ogBYufWpl"/>
      <point x="1774" y="1214" type="line" identifier="RHLvSX2Jv6"/>
      <point x="1774" y="1068" type="line"/>
      <point x="1725" y="986" type="line" identifier="iic1IBkDqp"/>
      <point x="671" y="985" type="line" identifier="lRLJEhXMlO"/>
      <point x="671" y="610" type="line" identifier="8aKgEELrVU"/>
      <point x="1939" y="610" type="line" identifier="Dm8zjmbhNr"/>
      <point x="1939" y="386" type="line" identifier="xv9CFHiFgB"/>
      <point x="230" y="386" type="line" identifier="YajKQV3MHP"/>
      <point x="230" y="568" type="line" identifier="36SchVkwze"/>
      <point x="228" y="568" type="line" identifier="tVui9PiOjA"/>
    </contour>
  </outline>
</glyph>
<glyph name="nine" format="2">
  <advance width="2116"/>
  <unicode hex="0039"/>
  <outline>
    <contour>
      <point x="1870" y="1600" type="line" identifier="uiw6aBUf4P"/>
      <point x="239" y="1600" type="line" identifier="jtYkxiUX6G"/>
      <point x="239" y="634" type="line" identifier="2G5L37c87I"/>
      <point x="1868" y="634" type="line"/>
      <point x="1868" y="386" type="line"/>
      <point x="242" y="386" type="line"/>
      <point x="242" y="533" type="line"/>
      <point x="240" y="533" type="line" identifier="Wuidbv6mUe"/>
      <point x="240" y="0" type="line" identifier="oGvEEuxnYv"/>
      <point x="1870" y="0" type="line" identifier="xR3pEHbMJx"/>
    </contour>
    <contour>
      <point x="241" y="1009" type="line"/>
      <point x="241" y="1214" type="line"/>
      <point x="1868" y="1214" type="line"/>
      <point x="1868" y="1009" type="line"/>
    </contour>
  </outline>
</glyph>
<glyph name="B" format="2">
  <advance width="2148"/>
  <unicode hex="0042"/>
  <outline>
    <contour>
      <point x="340" y="0" type="line"/>
      <point x="1811" y="0" type="line"/>
      <point x="2050" y="437" type="line"/>
      <point x="2050" y="971" type="line"/>
      <point x="1720" y="971" type="line"/>
      <point x="1780" y="1062" type="line"/>
      <point x="1780" y="1600" type="line"/>
      <point x="340" y="1600" type="line"/>
    </contour>
    <contour>
      <point x="342" y="382" type="line"/>
      <point x="342" y="609" type="line"/>
      <point x="2048" y="609" type="line"/>
      <point x="2048" y="516" type="line"/>
      <point x="1936" y="382" type="line"/>
    </contour>
    <contour>
      <point x="342" y="991" type="line"/>
      <point x="342" y="1218" type="line"/>
      <point x="1778" y="1218" type="line"/>
      <point x="1778" y="1115" type="line"/>
      <point x="1703" y="991" type="line"/>
    </contour>
  </outline>
</glyph>
<glyph name="C" format="2">
  <advance width="2162"/>
  <unicode hex="0043"/>
  <outline>
    <contour>
      <point x="239" y="0" type="line" identifier="7lPhzTnk2Z"/>
      <point x="1854" y="0" type="line" identifier="qJVLZGnkwh"/>
      <point x="1854" y="619" type="line" identifier="nDnDHzAMXL"/>
      <point x="1852" y="619" type="line" identifier="QX1V08aTu0"/>
      <point x="1852" y="398" type="line" identifier="Y750RHTvDj"/>
      <point x="241" y="398" type="line" identifier="L2LsGnXiZ2"/>
      <point x="241" y="1040" type="line" identifier="sUWsr03vF4"/>
      <point x="373" y="1202" type="line" identifier="dbOUe6OhxL"/>
      <point x="1840" y="1202" type="line" identifier="5BjRbcud80"/>
      <point x="1840" y="965" type="line" identifier="fNVDqwQo2o"/>
      <point x="1842" y="965" type="line" identifier="wLqQQx7QVN"/>
      <point x="1842" y="1600" type="line" identifier="9eJelv8BOw"/>
      <point x="481" y="1600" type="line" identifier="lfZev3ICaC"/>
      <point x="239" y="1128" type="line" identifier="V1EWIdPahq"/>
    </contour>
  </outline>
</glyph>
<glyph name="D" format="2">
  <advance width="2316"/>
  <unicode hex="0044"/>
  <outline>
    <contour>
      <point x="327" y="0" type="line" identifier="IF8msvcgce"/>
      <point x="1838" y="0" type="line" identifier="ydeACnPZN4"/>
      <point x="2080" y="510" type="line" identifier="wIy2omw5Da"/>
      <point x="2080" y="1600" type="line" identifier="gh4oopoKIn"/>
      <point x="327" y="1600" type="line" identifier="hTYdJwlqIh"/>
    </contour>
    <contour>
      <point x="329" y="398" type="line" identifier="YShvMHvurg"/>
      <point x="329" y="1202" type="line" identifier="OGdfzPVlic"/>
      <point x="2078" y="1202" type="line" identifier="4w8cXO1HlF"/>
      <point x="2078" y="596" type="line" identifier="5OFemp6E2Y"/>
      <point x="1942" y="398" type="line" identifier="DiLdvAK6bW"/>
    </contour>
  </outline>
</glyph>
<glyph name="E" format="2">
  <advance width="2145"/>
  <unicode hex="0045"/>
  <outline>
    <contour>
      <point x="339" y="0" type="line" identifier="fZynkQ4XHB"/>
      <point x="1839" y="0" type="line" identifier="FAQNpgUPxV"/>
      <point x="1839" y="651" type="line" identifier="gHI0YjrPxR"/>
      <point x="1837" y="651" type="line" identifier="gxCIuXb4el"/>
      <point x="1837" y="382" type="line" identifier="5cgTYOhATF"/>
      <point x="341" y="382" type="line" identifier="bWs42DaCgU"/>
      <point x="341" y="607" type="line" identifier="VtD2aADJmn"/>
      <point x="1303" y="607" type="line" identifier="PpbsFdHAnS"/>
      <point x="1303" y="990" type="line" identifier="8WuC5p8Ax5"/>
      <point x="341" y="990" type="line" identifier="m39IWn9ntA"/>
      <point x="341" y="1218" type="line" identifier="gQ21I4SHQg"/>
      <point x="1836" y="1218" type="line" identifier="eqNb2VTwYs"/>
      <point x="1836" y="974" type="line" identifier="mLmcFoJA4m"/>
      <point x="1838" y="974" type="line" identifier="e79n7CoPy1"/>
      <point x="1838" y="1600" type="line" identifier="qYRmo14Il5"/>
      <point x="339" y="1600" type="line" identifier="HmJIcnLWfC"/>
    </contour>
  </outline>
</glyph>
<glyph name="M" format="2">
  <advance width="2659"/>
  <unicode hex="004D"/>
  <outline>
    <contour>
      <point x="1193" y="123" type="line" identifier="0Dn4Xpf57M"/>
      <point x="528" y="1227" type="line"/>
      <point x="342" y="1227" type="line"/>
      <point x="342" y="0" type="line"/>
      <point x="340" y="0" type="line"/>
      <point x="340" y="1600" type="line"/>
      <point x="602" y="1600" type="line"/>
      <point x="1244" y="518" type="line"/>
      <point x="1415" y="518" type="line" identifier="9aKZPM0HPh"/>
      <point x="2057" y="1600" type="line"/>
      <point x="2318" y="1600" type="line"/>
      <point x="2318" y="0" type="line"/>
      <point x="2316" y="0" type="line"/>
      <point x="2316" y="1227" type="line"/>
      <point x="2130" y="1227" type="line"/>
      <point x="1466" y="123" type="line" identifier="spdoeeCFft"/>
    </contour>
  </outline>
</glyph>
<glyph name="S" format="2">
  <advance width="2027"/>
  <unicode hex="0053"/>
  <outline>
    <contour>
      <point x="237" y="0" type="line" identifier="09VlJ0BjUX"/>
      <point x="1521" y="0" type="line" identifier="EagWihqFM8"/>
      <point x="1762" y="458" type="line"/>
      <point x="1762" y="994" type="line" identifier="KfNuQA7eZe"/>
      <point x="240" y="994" type="line" identifier="At364YZFEy"/>
      <point x="240" y="1034" type="line"/>
      <point x="387" y="1225" type="line"/>
      <point x="1735" y="1225" type="line" identifier="3ZUkG35meB"/>
      <point x="1735" y="1095" type="line" identifier="DTOJhFIl15"/>
      <point x="1737" y="1095" type="line" identifier="9KDcrfQ5Ui"/>
      <point x="1737" y="1600" type="line" identifier="SaF9ojRFrW"/>
      <point x="479" y="1600" type="line"/>
      <point x="238" y="1121" type="line"/>
      <point x="238" y="608" type="line" identifier="3sQ8t8BZ6b"/>
      <point x="1760" y="608" type="line" identifier="yiV6OCBLHg"/>
      <point x="1760" y="544" type="line"/>
      <point x="1611" y="379" type="line" identifier="9kdl9SYsn8"/>
      <point x="239" y="379" type="line" identifier="yZDWuX8LLe"/>
      <point x="239" y="514" type="line" identifier="jYb9001DTm"/>
      <point x="237" y="514" type="line" identifier="ho4DrS0rdW"/>
    </contour>
  </outline>
</glyph>
<glyph name="W" format="2">
  <advance width="2116"/>
  <unicode hex="0057"/>
  <outline>
    <contour>
      <point x="922" y="1600" type="line" identifier="0Dn4Xpf57M"/>
      <point x="531" y="255" type="line"/>
      <point x="274" y="255" type="line"/>
      <point x="61" y="1600" type="line"/>
      <point x="59" y="1600" type="line"/>
      <point x="341" y="0" type="line"/>
      <point x="625" y="0" type="line"/>
      <point x="979" y="1223" type="line"/>
      <point x="1137" y="1223" type="line" identifier="9aKZPM0HPh"/>
      <point x="1491" y="0" type="line"/>
      <point x="1776" y="0" type="line"/>
      <point x="2057" y="1600" type="line"/>
      <point x="2055" y="1600" type="line"/>
      <point x="1842" y="255" type="line"/>
      <point x="1584" y="255" type="line"/>
      <point x="1194" y="1600" type="line" identifier="spdoeeCFft"/>
    </contour>
  </outline>
</glyph>
<glyph name="bracketleft" format="2">
  <advance width="1059"/>
  <unicode hex="005B"/>
  <outline>
    <contour>
      <point x="342" y="1341" type="line"/>
      <point x="937" y="1341" type="line"/>
      <point x="937" y="1739" type="line"/>
      <point x="340" y="1739" type="line"/>
      <point x="340" y="-139" type="line"/>
      <point x="932" y="-139" type="line"/>
      <point x="932" y="259" type="line"/>
      <point x="342" y="259" type="line"/>
    </contour>
  </outline>
</glyph>
<glyph name="braceleft" format="2">
  <advance width="953"/>
  <unicode hex="007B"/>
  <outline>
    <contour>
      <point x="234" y="1005" type="line"/>
      <point x="234" y="1341" type="line"/>
      <point x="829" y="1341" type="line"/>
      <point x="829" y="1739" type="line"/>
      <point x="232" y="1739" type="line"/>
      <point x="232" y="1006" type="line"/>
      <point x="58" y="801" type="line"/>
      <point x="58" y="799" type="line"/>
      <point x="232" y="594" type="line"/>
      <point x="232" y="-139" type="line"/>
      <point x="824" y="-139" type="line"/>
      <point x="824" y="259" type="line"/>
      <point x="234" y="259" type="line"/>
      <point x="234" y="595" type="line"/>
      <point x="60" y="799" type="line"/>
      <point x="60" y="801" type="line"/>
    </contour>
  </outline>
</glyph>
<glyph name="bar" format="2">
  <advance width="683"/>
  <unicode hex="007C"/>
  <outline>
    <contour>
      <point x="340" y="-145" type="line"/>
      <point x="342" y="-145" type="line"/>
      <point x="342" y="1745" type="line"/>
      <point x="340" y="1745" type="line"/>
    </contour>
  </outline>
</glyph>
<glyph name="E.wide" format="2">
  <advance width="2193"/>
  <outline>
    <contour>
      <point x="319" y="0" type="line" identifier="fZynkQ4XHB"/>
      <point x="1948" y="0" type="line" identifier="FAQNpgUPxV"/>
      <point x="1948" y="378" type="line" identifier="5cgTYOhATF"/>
      <point x="321" y="378" type="line" identifier="bWs42DaCgU"/>
      <point x="321" y="621" type="line" identifier="VtD2aADJmn"/>
      <point x="1665" y="621" type="line" identifier="PpbsFdHAnS"/>
      <point x="1665" y="980" type="line" identifier="8WuC5p8Ax5"/>
      <point x="321" y="980" type="line" identifier="m39IWn9ntA"/>
      <point x="321" y="1227" type="line" identifier="gQ21I4SHQg"/>
      <point x="1947" y="1227" type="line" identifier="eqNb2VTwYs"/>
      <point x="1947" y="1600" type="line" identifier="qYRmo14Il5"/>
      <point x="319" y="1600" type="line" identifier="HmJIcnLWfC"/>
    </contour>
  </outline>
</glyph>
<glyph name="E.wideskinny" format="2">
  <advance width="2262"/>
  <outline>
    <contour>
      <point x="328" y="0" type="line" identifier="fZynkQ4XHB"/>
      <point x="1956" y="0" type="line" identifier="FAQNpgUPxV"/>
      <point x="1956" y="378" type="line" identifier="5cgTYOhATF"/>
      <point x="330" y="378" type="line" identifier="bWs42DaCgU"/>
      <point x="330" y="638" type="line" identifier="VtD2aADJmn"/>
      <point x="1823" y="638" type="line" identifier="PpbsFdHAnS"/>
      <point x="1823" y="962" type="line" identifier="8WuC5p8Ax5"/>
      <point x="330" y="962" type="line" identifier="m39IWn9ntA"/>
      <point x="330" y="1227" type="line" identifier="gQ21I4SHQg"/>
      <point x="1955" y="1227" type="line" identifier="eqNb2VTwYs"/>
      <point x="1955" y="1600" type="line" identifier="qYRmo14Il5"/>
      <point x="328" y="1600" type="line" identifier="HmJIcnLWfC"/>
    </contour>
  </outline>
</glyph>
<glyph name="G.wide" format="2">
  <advance width="2211"/>
  <outline>
    <contour>
      <point x="239" y="0" type="line" identifier="7lPhzTnk2Z"/>
      <point x="1953" y="0" type="line" identifier="qJVLZGnkwh"/>
      <point x="1953" y="1010" type="line" identifier="uek1NNj7De"/>
      <point x="1654" y="1010" type="line" identifier="qcvimxjndX"/>
      <point x="1654" y="634" type="line" identifier="EARaY3Su65"/>
      <point x="1951" y="634" type="line" identifier="4m6dHLVhZq"/>
      <point x="1951" y="386" type="line" identifier="Y750RHTvDj"/>
      <point x="241" y="386" type="line" identifier="L2LsGnXiZ2"/>
      <point x="241" y="1001" type="line" identifier="sUWsr03vF4"/>
      <point x="377" y="1214" type="line" identifier="dbOUe6OhxL"/>
      <point x="1952" y="1214" type="line" identifier="5BjRbcud80"/>
      <point x="1952" y="1600" type="line" identifier="9eJelv8BOw"/>
      <point x="488" y="1600" type="line" identifier="lfZev3ICaC"/>
      <point x="239" y="1089" type="line" identifier="V1EWIdPahq"/>
    </contour>
  </outline>
</glyph>
<glyph name="I.narrow" format="2">
  <advance width="615"/>
  <outline>
    <contour>
      <point x="308" y="0" type="line" identifier="1m237t4hyw"/>
      <point x="308" y="1600" type="line" identifier="v7N4yg5XNk"/>
      <point x="306" y="1600" type="line" identifier="zfocDyDTCM"/>
      <point x="306" y="0" type="line" identifier="S4rO5KuHiL"/>
    </contour>
  </outline>
</glyph>
<glyph name="N.wide" format="2">
  <advance width="1872"/>
  <outline>
    <contour>
      <point x="206" y="0" type="line" identifier="CkwYPPvJLv"/>
      <point x="208" y="0" type="line" identifier="oHTJsN7drZ"/>
      <point x="208" y="1129" type="line" identifier="wfBbYd10Pm"/>
      <point x="411" y="1129" type="line" identifier="MEnBDHq6zU"/>
      <point x="1746" y="0" type="line" identifier="3Nbopwznvn"/>
      <point x="1946" y="0" type="line" identifier="uKfuudIUvA"/>
      <point x="1946" y="1600" type="line" identifier="XRdLFXiM4t"/>
      <point x="1944" y="1600" type="line" identifier="MUSJPjCIXg"/>
      <point x="1944" y="471" type="line" identifier="VILP20cFmq"/>
      <point x="1745" y="471" type="line" identifier="z5b04GDwRN"/>
      <point x="412" y="1600" type="line" identifier="LL64NQ6WBE"/>
      <point x="206" y="1600" type="line" identifier="dzUaaP1sjt"/>
    </contour>
  </outline>
</glyph>
<glyph name="R.wide" format="2">
  <advance width="2196"/>
  <outline>
    <contour>
      <point x="1874" y="0" type="line"/>
      <point x="1876" y="0" type="line"/>
      <point x="1629" y="612" type="line"/>
      <point x="1627" y="611" type="line"/>
    </contour>
    <contour>
      <point x="306" y="0" type="line" identifier="EG08jqU5fb"/>
      <point x="308" y="0" type="line" identifier="osRzIFK2Cu"/>
      <point x="308" y="590" type="line" identifier="hIFVovVRwe"/>
      <point x="1908" y="590" type="line" identifier="Tt6D8zYZmU"/>
      <point x="1908" y="1600" type="line" identifier="6xW04auDFu"/>
      <point x="306" y="1600" type="line" identifier="eETO5GBD5v"/>
    </contour>
    <contour>
      <point x="308" y="988" type="line" identifier="PIBVN1PGv1"/>
      <point x="308" y="1202" type="line" identifier="IZIZQr2gYJ"/>
      <point x="1906" y="1202" type="line" identifier="2c4LCF1E1R"/>
      <point x="1906" y="988" type="line" identifier="1WCnzth1GX"/>
    </contour>
  </outline>
</glyph>
<glyph name="S.wide" format="2">
  <advance width="2154"/>
  <outline>
    <contour>
      <point x="241" y="0" type="line" identifier="09VlJ0BjUX"/>
      <point x="1673" y="0" type="line" identifier="EagWihqFM8"/>
      <point x="1915" y="458" type="line"/>
      <point x="1915" y="992" type="line" identifier="KfNuQA7eZe"/>
      <point x="243" y="992" type="line" identifier="At364YZFEy"/>
      <point x="243" y="1034" type="line"/>
      <point x="389" y="1225" type="line"/>
      <point x="1887" y="1225" type="line" identifier="3ZUkG35meB"/>
      <point x="1887" y="1600" type="line" identifier="SaF9ojRFrW"/>
      <point x="485" y="1600" type="line"/>
      <point x="241" y="1121" type="line"/>
      <point x="241" y="606" type="line" identifier="3sQ8t8BZ6b"/>
      <point x="1913" y="606" type="line" identifier="yiV6OCBLHg"/>
      <point x="1913" y="545" type="line"/>
      <point x="1764" y="379" type="line" identifier="9kdl9SYsn8"/>
      <point x="241" y="379" type="line" identifier="yZDWuX8LLe"/>
    </contour>
  </outline>
</glyph>
<glyph name="S.wideskinny" format="2">
  <advance width="2103"/>
  <outline>
    <contour>
      <point x="237" y="0" type="line" identifier="09VlJ0BjUX"/>
      <point x="1625" y="0" type="line" identifier="EagWihqFM8"/>
      <point x="1866" y="458" type="line"/>
      <point x="1867" y="975" type="line" identifier="KfNuQA7eZe"/>
      <point x="239" y="975" type="line" identifier="At364YZFEy"/>
      <point x="239" y="1034" type="line"/>
      <point x="385" y="1225" type="line"/>
      <point x="1865" y="1225" type="line" identifier="3ZUkG35meB"/>
      <point x="1864" y="1600" type="line" identifier="SaF9ojRFrW"/>
      <point x="482" y="1600" type="line"/>
      <point x="237" y="1121" type="line"/>
      <point x="237" y="623" type="line" identifier="3sQ8t8BZ6b"/>
      <point x="1864" y="623" type="line" identifier="yiV6OCBLHg"/>
      <point x="1864" y="545" type="line"/>
      <point x="1716" y="379" type="line" identifier="9kdl9SYsn8"/>
      <point x="237" y="379" type="line" identifier="yZDWuX8LLe"/>
    </contour>
  </outline>
</glyph>
<glyph name="Y.alt" format="2">
  <advance width="2106"/>
  <outline>
    <contour>
      <point x="569" y="0" type="line" smooth="yes"/>
      <point x="1537" y="0" type="line" smooth="yes"/>
      <point x="1961" y="1599" type="line" smooth="yes"/>
      <point x="1959" y="1600" type="line" smooth="yes"/>
      <point x="1651" y="398" type="line"/>
      <point x="456" y="398" type="line" smooth="yes"/>
      <point x="148" y="1600" type="line"/>
      <point x="146" y="1598" type="line" smooth="yes"/>
    </contour>
    <contour>
      <point x="1541" y="18" type="line"/>
      <point x="1435" y="-398" type="line"/>
      <point x="1437" y="-400" type="line"/>
      <point x="1542" y="15" type="line"/>
    </contour>
  </outline>
</glyph>
<glyph name="Y.wide" format="2">
  <advance width="2240"/>
  <outline>
    <contour>
      <point x="276" y="0" type="line"/>
      <point x="1912" y="0" type="line" identifier="oOtn61SmRY"/>
      <point x="1912" y="1600" type="line" identifier="8OglXgblhr"/>
      <point x="1910" y="1600" type="line" identifier="db0bPhBdaU"/>
      <point x="1910" y="1004" type="line" identifier="MTAeavIVWY"/>
      <point x="277" y="1004" type="line" identifier="lggLiivmLt"/>
      <point x="277" y="1600" type="line" identifier="UPaHY3UudR"/>
      <point x="275" y="1600" type="line" identifier="ZnCDQVdtyD"/>
      <point x="275" y="618" type="line" identifier="uqAJBjDIOT"/>
      <point x="1910" y="618" type="line" identifier="7JgTtdb0jg"/>
      <point x="1910" y="386" type="line"/>
      <point x="276" y="386" type="line"/>
    </contour>
  </outline>
</glyph>
<glyph name="five.wide" format="2">
  <advance width="2144"/>
  <outline>
    <contour>
      <point x="237" y="0" type="line" identifier="09VlJ0BjUX"/>
      <point x="1908" y="0" type="line" identifier="EagWihqFM8"/>
      <point x="1908" y="987" type="line" identifier="KfNuQA7eZe"/>
      <point x="238" y="987" type="line" identifier="At364YZFEy"/>
      <point x="238" y="1214" type="line" identifier="BcuLfvaQKC"/>
      <point x="1908" y="1214" type="line" identifier="3ZUkG35meB"/>
      <point x="1908" y="1600" type="line" identifier="SaF9ojRFrW"/>
      <point x="236" y="1600" type="line" identifier="F4sQEYelA8"/>
      <point x="236" y="611" type="line" identifier="3sQ8t8BZ6b"/>
      <point x="1906" y="611" type="line" identifier="yiV6OCBLHg"/>
      <point x="1906" y="386" type="line" identifier="9kdl9SYsn8"/>
      <point x="237" y="386" type="line" identifier="yZDWuX8LLe"/>
    </contour>
  </outline>
</glyph>
<glyph name="five.wideskinny" format="2">
  <advance width="2188"/>
  <outline>
    <contour>
      <point x="259" y="0" type="line" identifier="09VlJ0BjUX"/>
      <point x="1930" y="0" type="line" identifier="EagWihqFM8"/>
      <point x="1930" y="969" type="line" identifier="KfNuQA7eZe"/>
      <point x="260" y="969" type="line" identifier="At364YZFEy"/>
      <point x="260" y="1214" type="line" identifier="BcuLfvaQKC"/>
      <point x="1930" y="1214" type="line" identifier="3ZUkG35meB"/>
      <point x="1930" y="1600" type="line" identifier="SaF9ojRFrW"/>
      <point x="258" y="1600" type="line" identifier="F4sQEYelA8"/>
      <point x="258" y="629" type="line" identifier="3sQ8t8BZ6b"/>
      <point x="1928" y="629" type="line" identifier="yiV6OCBLHg"/>
      <point x="1928" y="386" type="line" identifier="9kdl9SYsn8"/>
      <point x="259" y="386" type="line" identifier="yZDWuX8LLe"/>
    </contour>
  </outline>
</glyph>
<glyph name="three.wide" format="2">
  <advance width="1926"/>
  <outline>
    <contour>
      <point x="50" y="0" type="line" identifier="O9abUc1nmN"/>
      <point x="1763" y="0" type="line" identifier="kMJYMTfXCq"/>
      <point x="1763" y="986" type="line" identifier="su2XmdS8e8"/>
      <point x="1549" y="986" type="line" identifier="JQaOzDQqlF"/>
      <point x="1598" y="1068" type="line"/>
      <point x="1598" y="1600" type="line" identifier="xg8x2Ki40p"/>
      <point x="130" y="1600" type="line" identifier="pE1XSRiy68"/>
      <point x="130" y="1214" type="line" identifier="7ogBYufWpl"/>
      <point x="1596" y="1214" type="line" identifier="RHLvSX2Jv6"/>
      <point x="1596" y="1068" type="line"/>
      <point x="1547" y="986" type="line" identifier="iic1IBkDqp"/>
      <point x="493" y="985" type="line" identifier="lRLJEhXMlO"/>
      <point x="493" y="610" type="line" identifier="8aKgEELrVU"/>
      <point x="1761" y="610" type="line" identifier="Dm8zjmbhNr"/>
      <point x="1761" y="386" type="line" identifier="xv9CFHiFgB"/>
      <point x="50" y="386" type="line" identifier="YajKQV3MHP"/>
    </contour>
  </outline>
</glyph>
